<?xml version="1.0" standalone="no"?>
<!DOCTYPE svg PUBLIC "-//W3C//DTD SVG 20010904//EN"
 "http://www.w3.org/TR/2001/REC-SVG-20010904/DTD/svg10.dtd">
<svg version="1.0" xmlns="http://www.w3.org/2000/svg"
 width="467.000000pt" height="467.000000pt" viewBox="0 0 467.000000 467.000000"
 preserveAspectRatio="xMidYMid meet">
<metadata>
Created by potrace 1.11, written by Peter Selinger 2001-2013
</metadata>
<g transform="translate(0.000000,467.000000) scale(0.100000,-0.100000)"
fill="#000000" stroke="none">
<path d="M2220 4550 c-194 -194 -373 -346 -607 -516 -462 -334 -948 -590
-1501 -790 l-52 -19 100 -70 c56 -39 127 -88 158 -111 31 -22 278 -195 547
-384 270 -189 513 -359 540 -379 239 -168 386 -270 417 -291 20 -14 200 -140
399 -280 377 -265 425 -299 627 -440 67 -47 122 -92 122 -100 0 -19 -29 -55
-55 -68 -32 -16 -78 6 -220 107 -157 113 -621 420 -900 597 -88 56 -196 107
-281 134 -88 27 -92 28 -239 49 -82 11 -288 3 -378 -15 -12 -2 -35 -7 -50 -9
-25 -5 -100 -23 -182 -44 -178 -46 -637 -273 -609 -301 5 -5 109 -80 231 -167
710 -505 899 -640 922 -655 14 -9 121 -84 236 -167 116 -83 217 -155 225 -161
21 -15 421 -299 445 -316 11 -8 63 -45 115 -82 l95 -68 96 95 c558 556 1305
1030 2048 1297 72 26 131 50 131 53 -1 5 -125 93 -523 369 -189 133 -753 528
-762 535 -5 5 -95 68 -200 141 -104 73 -433 303 -730 511 -297 208 -574 402
-615 430 -40 29 -75 56 -77 62 -5 15 37 63 64 74 33 12 69 -5 183 -87 209
-151 901 -606 1020 -671 117 -63 259 -107 415 -128 54 -7 251 -8 300 -1 247
35 432 91 652 196 108 51 293 155 293 165 0 1 -50 38 -110 81 -61 44 -155 110
-208 148 -53 38 -185 132 -292 207 -107 76 -199 141 -205 146 -5 5 -55 40
-110 79 -55 39 -255 181 -445 316 -190 135 -364 258 -386 274 -23 16 -86 61
-140 99 -54 39 -108 77 -120 85 -13 8 -73 51 -136 96 -62 44 -117 83 -123 85
-5 2 -62 -48 -125 -111z"/>
</g>
</svg>
